<?xml version="1.0" encoding="UTF-8"?>
<svg id="Layer_2" data-name="Layer 2" xmlns="http://www.w3.org/2000/svg" viewBox="0 0 85.39 82.14">
  <defs>
    <style>
      .cls-1 {
        fill: #257abf;
      }

      .cls-2 {
        fill: #0e1927;
      }
    </style>
  </defs>
  <g id="Layer_1-2" data-name="Layer 1">
    <g>
      <path class="cls-2" d="M78.79,0h-41.43C16.76,0,0,16.76,0,37.37s16.76,37.37,37.37,37.37c2.09,0,4.13-.18,6.13-.51,3.94-.65,7.67-1.93,11.1-3.71,6.02-3.14,11.09-7.87,14.63-13.64-.79-1.7-1.88-3.36-3.29-4.88-1.93-2.07-4.2-3.62-6.61-4.55-2.65,5.75-7.48,10.28-13.44,12.53-2.65,1-5.52,1.56-8.52,1.56-.38,0-.75-.01-1.13-.03-12.81-.59-23.04-11.19-23.04-24.14s10.84-24.17,24.17-24.17,24.17,10.84,24.17,24.17c0,.18,0,.35-.01.53,4.28,1.38,8.27,3.95,11.54,7.46.22.23.42.47.63.71.67-2.79,1.03-5.7,1.03-8.69,0-8.91-3.19-17.46-8.91-24.17h12.97c3.64,0,6.59-2.96,6.59-6.6s-2.96-6.59-6.59-6.59Z"/>
      <path class="cls-1" d="M73.7,46.06c-.21-.24-.41-.47-.63-.71-3.27-3.51-7.27-6.08-11.54-7.46-1.34-.43-2.71-.75-4.09-.95-6.16-.86-11.86.81-16.04,4.71-5.29,4.93-6.97,12.49-5.15,19.86.37.02.75.03,1.13.03,3,0,5.87-.55,8.52-1.56-1.33-4.28-.68-8.56,2.14-11.19,1.63-1.51,3.83-2.31,6.32-2.31.56,0,1.14.04,1.73.12,1.09.15,2.18.44,3.24.85,2.41.92,4.68,2.48,6.61,4.55,1.41,1.51,2.5,3.17,3.29,4.88,2.26,4.91,1.9,10.16-1.37,13.21-1.99,1.86-4.85,2.63-8.06,2.19-1.78-.25-3.54-.85-5.2-1.76-3.42,1.79-7.16,3.06-11.1,3.71,4.19,4.21,9.47,6.94,14.96,7.7,1.06.15,2.1.22,3.12.22,4.95,0,9.46-1.7,12.92-4.93,8.14-7.58,7.72-21.38-.79-31.16Z"/>
    </g>
  </g>
</svg>